<svg id="Layer_1" data-name="Layer 1" xmlns="http://www.w3.org/2000/svg" xmlns:xlink="http://www.w3.org/1999/xlink" viewBox="0 0 56 56"><defs><linearGradient id="linear-gradient" x1="-494.94" y1="-39.58" x2="-493.89" y2="-40.69" gradientTransform="matrix(56, 0, 0, -56, 27715, -2220)" gradientUnits="userSpaceOnUse"><stop offset="0" stop-color="#01bbb9"/><stop offset="1" stop-color="#007ee6"/></linearGradient></defs><title>ic_ThuVien_56</title><g id="Group_33316" data-name="Group 33316"><rect id="Rectangle_17425" data-name="Rectangle 17425" width="56" height="56" rx="10" style="fill:url(#linear-gradient)"/><g id="Group_30515" data-name="Group 30515"><path id="Path_61205" data-name="Path 61205" d="M43.42,19.57V36a1.09,1.09,0,0,1-.9,1.08A24.77,24.77,0,0,0,32,41.68a75.66,75.66,0,0,1,13.84-1.6.74.74,0,0,0,.7-.74V20.28a.74.74,0,0,0-.74-.74Z" style="fill:#fff"/><path id="Path_61207" data-name="Path 61207" d="M40.34,13.69c-4.16.77-8.93,2.81-11.49,6V41.44A26.15,26.15,0,0,1,41.21,35.1V14.41a.74.74,0,0,0-.74-.73ZM37,30.18a11.18,11.18,0,0,0-3.43,1.45,1.1,1.1,0,1,1-1.16-1.87h0A13.19,13.19,0,0,1,36.62,28,1.1,1.1,0,0,1,37,30.17Zm0-7a9.33,9.33,0,0,0-3.44,1.4A1.11,1.11,0,0,1,32,24.29a1.12,1.12,0,0,1,.28-1.54h0A11.41,11.41,0,0,1,36.62,21,1.1,1.1,0,0,1,37,23.15h0Z" style="fill:#fff"/><path id="Path_61209" data-name="Path 61209" d="M15.17,13.69c4.16.77,8.93,2.81,11.49,6V41.44A26.11,26.11,0,0,0,14.3,35.1V14.41a.74.74,0,0,1,.74-.73h.13Zm3.35,16.49A11.34,11.34,0,0,1,22,31.63a1.09,1.09,0,0,0,1.51-.36,1.08,1.08,0,0,0-.35-1.51h0A13.24,13.24,0,0,0,18.89,28a1.1,1.1,0,1,0-.41,2.17h0Zm0-7A9.33,9.33,0,0,1,22,24.56a1.1,1.1,0,1,0,1.26-1.81h0A11.34,11.34,0,0,0,18.89,21a1.1,1.1,0,1,0-.41,2.17Z" style="fill:#fff"/><path id="Path_61205-2" data-name="Path 61205-2" d="M9.73,19.54a.74.74,0,0,0-.73.74V39.34a.74.74,0,0,0,.7.74,75.76,75.76,0,0,1,13.84,1.6A24.83,24.83,0,0,0,13,37.08,1.09,1.09,0,0,1,12.1,36V19.57Z" style="fill:#fff"/></g></g></svg>